# Blender 3.1.0
# www.blender.org
mtllib hole.mtl
o Cube
v 0.021377 3.252008 0.032269
v 0.021377 3.252008 -0.032269
v 0.002925 4.299724 0.032269
v -1.035638 3.761573 0.032269
v 0.002925 4.299724 -0.032269
v -1.035638 3.761573 -0.032269
v 0.000000 4.323419 -0.050000
v -0.000000 0.655365 -0.050000
v 0.009754 4.323419 -0.049039
v 0.009754 0.655365 -0.049039
v 0.019134 4.323419 -0.046194
v 0.019134 0.655365 -0.046194
v 0.027778 4.323419 -0.041573
v 0.027779 0.655365 -0.041573
v 0.035355 4.323419 -0.035355
v 0.035355 0.655365 -0.035355
v 0.041573 4.323419 -0.027779
v 0.041573 0.655365 -0.027779
v 0.046194 4.323419 -0.019134
v 0.046194 0.655365 -0.019134
v 0.049039 4.323419 -0.009755
v 0.049039 0.655365 -0.009755
v 0.050000 4.323419 0.000000
v 0.050000 0.655365 0.000000
v 0.049039 4.323419 0.009755
v 0.049039 0.655365 0.009755
v 0.046194 4.323419 0.019134
v 0.046194 0.655365 0.019134
v 0.041573 4.323419 0.027779
v 0.041573 0.655365 0.027779
v 0.035355 4.323419 0.035355
v 0.035355 0.655365 0.035355
v 0.027778 4.323419 0.041573
v 0.027779 0.655365 0.041573
v 0.019134 4.323419 0.046194
v 0.019134 0.655365 0.046194
v 0.009754 4.323419 0.049039
v 0.009754 0.655365 0.049039
v 0.000000 4.323419 0.050000
v -0.000000 0.655365 0.050000
v -0.009755 4.323419 0.049039
v -0.009755 0.655365 0.049039
v -0.019134 4.323419 0.046194
v -0.019134 0.655365 0.046194
v -0.027779 4.323419 0.041573
v -0.027779 0.655365 0.041573
v -0.035355 4.323419 0.035355
v -0.035355 0.655365 0.035355
v -0.041574 4.323419 0.027779
v -0.041573 0.655365 0.027779
v -0.046194 4.323419 0.019134
v -0.046194 0.655365 0.019134
v -0.049039 4.323419 0.009755
v -0.049039 0.655365 0.009755
v -0.050000 4.323419 -0.000000
v -0.050000 0.655365 -0.000000
v -0.049039 4.323419 -0.009755
v -0.049039 0.655365 -0.009755
v -0.046194 4.323419 -0.019134
v -0.046194 0.655365 -0.019134
v -0.041574 4.323419 -0.027779
v -0.041574 0.655365 -0.027779
v -0.035355 4.323419 -0.035355
v -0.035355 0.655365 -0.035355
v -0.027779 4.323419 -0.041573
v -0.027779 0.655365 -0.041573
v -0.019134 4.323419 -0.046194
v -0.019134 0.655365 -0.046194
v -0.009755 4.323419 -0.049039
v -0.009755 0.655365 -0.049039
vn -0.2410 0.4652 -0.0000
vn 0.5239 0.0092 -0.0000
vn -0.1697 -0.3520 -0.0215
vn -0.4442 -0.0000 0.0171
vn -0.5135 -0.0000 0.0064
vn -0.5205 -0.0000 0.0037
vn -0.5225 -0.0000 0.0024
vn -0.5233 -0.0000 0.0016
vn -0.5237 -0.0000 0.0011
vn -0.5238 -0.0000 0.0006
vn -0.5239 -0.0000 0.0002
vn -0.5239 -0.0000 -0.0002
vn -0.5238 -0.0000 -0.0006
vn -0.5237 -0.0000 -0.0011
vn -0.5233 -0.0000 -0.0016
vn -0.5225 -0.0000 -0.0024
vn -0.5205 -0.0000 -0.0037
vn -0.5135 -0.0000 -0.0064
vn -0.4442 -0.0000 -0.0171
vn 0.4442 -0.0000 -0.0171
vn 0.5135 -0.0000 -0.0064
vn 0.5205 -0.0000 -0.0037
vn 0.5225 -0.0000 -0.0024
vn 0.5233 -0.0000 -0.0016
vn 0.5237 -0.0000 -0.0011
vn 0.5238 -0.0000 -0.0006
vn 0.5239 -0.0000 -0.0002
vn 0.5239 -0.0000 0.0002
vn 0.5238 -0.0000 0.0006
vn 0.5237 -0.0000 0.0011
vn 0.5233 -0.0000 0.0016
vn 0.5225 -0.0000 0.0024
vn 0.5205 -0.0000 0.0037
vn -0.0000 0.5239 -0.0000
vn 0.5135 -0.0000 0.0064
vn 0.4442 -0.0000 0.0171
vn -0.0000 -0.5239 -0.0000
vn -0.0000 -0.0000 0.0323
vn 0.2410 -0.4652 -0.0000
vn -0.0001 0.5239 -0.0000
vn 0.0001 0.5239 -0.0000
vt 0.125000 0.750000
vt 0.375000 1.000000
vt 0.125000 0.500000
vt 0.375000 0.750000
vt 0.625000 0.750000
vt 0.375000 0.500000
vt 0.625000 0.500000
vt 1.000000 0.500000
vt 0.000000 0.500000
vt 0.750000 0.490000
vt 1.000000 1.000000
vt 0.250000 0.490000
vt 0.000000 1.000000
vt 0.968750 0.500000
vt 0.796822 0.485388
vt 0.968750 1.000000
vt 0.296822 0.485388
vt 0.937500 0.500000
vt 0.841844 0.471731
vt 0.937500 1.000000
vt 0.341844 0.471731
vt 0.906250 0.500000
vt 0.883337 0.449553
vt 0.906250 1.000000
vt 0.383337 0.449553
vt 0.875000 0.500000
vt 0.919706 0.419706
vt 0.875000 1.000000
vt 0.419706 0.419706
vt 0.843750 0.500000
vt 0.949553 0.383337
vt 0.843750 1.000000
vt 0.449553 0.383337
vt 0.812500 0.500000
vt 0.971731 0.341844
vt 0.812500 1.000000
vt 0.471731 0.341844
vt 0.781250 0.500000
vt 0.985388 0.296822
vt 0.781250 1.000000
vt 0.485388 0.296822
vt 0.750000 0.500000
vt 0.990000 0.250000
vt 0.750000 1.000000
vt 0.490000 0.250000
vt 0.718750 0.500000
vt 0.985388 0.203178
vt 0.718750 1.000000
vt 0.485388 0.203178
vt 0.687500 0.500000
vt 0.971731 0.158156
vt 0.687500 1.000000
vt 0.471731 0.158156
vt 0.656250 0.500000
vt 0.949553 0.116663
vt 0.656250 1.000000
vt 0.449553 0.116663
vt 0.625000 0.500000
vt 0.919706 0.080294
vt 0.625000 1.000000
vt 0.419706 0.080294
vt 0.593750 0.500000
vt 0.883337 0.050447
vt 0.593750 1.000000
vt 0.383337 0.050447
vt 0.562500 0.500000
vt 0.841844 0.028269
vt 0.562500 1.000000
vt 0.341844 0.028269
vt 0.531250 0.500000
vt 0.796822 0.014612
vt 0.531250 1.000000
vt 0.296822 0.014612
vt 0.500000 0.500000
vt 0.750000 0.010000
vt 0.500000 1.000000
vt 0.250000 0.010000
vt 0.468750 0.500000
vt 0.703178 0.014612
vt 0.468750 1.000000
vt 0.203178 0.014612
vt 0.437500 0.500000
vt 0.658156 0.028269
vt 0.437500 1.000000
vt 0.158156 0.028269
vt 0.406250 0.500000
vt 0.616663 0.050447
vt 0.406250 1.000000
vt 0.116663 0.050447
vt 0.375000 0.500000
vt 0.580294 0.080294
vt 0.375000 1.000000
vt 0.080294 0.080294
vt 0.343750 0.500000
vt 0.550447 0.116663
vt 0.343750 1.000000
vt 0.050447 0.116663
vt 0.312500 0.500000
vt 0.528269 0.158156
vt 0.312500 1.000000
vt 0.028269 0.158156
vt 0.281250 0.500000
vt 0.514612 0.203178
vt 0.281250 1.000000
vt 0.014612 0.203178
vt 0.250000 0.500000
vt 0.510000 0.250000
vt 0.250000 1.000000
vt 0.010000 0.250000
vt 0.218750 0.500000
vt 0.514612 0.296822
vt 0.218750 1.000000
vt 0.014612 0.296822
vt 0.187500 0.500000
vt 0.528269 0.341844
vt 0.187500 1.000000
vt 0.028269 0.341844
vt 0.156250 0.500000
vt 0.550447 0.383337
vt 0.156250 1.000000
vt 0.050447 0.383337
vt 0.125000 0.500000
vt 0.580294 0.419706
vt 0.125000 1.000000
vt 0.080294 0.419706
vt 0.093750 0.500000
vt 0.616663 0.449553
vt 0.093750 1.000000
vt 0.116663 0.449553
vt 0.062500 0.500000
vt 0.658156 0.471731
vt 0.158156 0.471731
vt 0.062500 1.000000
vt 0.031250 0.500000
vt 0.703178 0.485388
vt 0.203178 0.485388
vt 0.031250 1.000000
s 0
f 6/7/1 3/4/1 5/6/1
f 5/6/2 1/1/2 2/3/2
f 4/5/3 5/6/3 1/2/3
f 7/8/4 10/16/4 9/14/4
f 9/14/5 12/20/5 11/18/5
f 12/20/6 13/22/6 11/18/6
f 14/24/7 15/26/7 13/22/7
f 16/28/8 17/30/8 15/26/8
f 18/32/9 19/34/9 17/30/9
f 19/34/10 22/40/10 21/38/10
f 22/40/11 23/42/11 21/38/11
f 24/44/12 25/46/12 23/42/12
f 26/48/13 27/50/13 25/46/13
f 28/52/14 29/54/14 27/50/14
f 30/56/15 31/58/15 29/54/15
f 31/58/16 34/64/16 33/62/16
f 34/64/17 35/66/17 33/62/17
f 36/68/18 37/70/18 35/66/18
f 38/72/19 39/74/19 37/70/19
f 39/74/20 42/80/20 41/78/20
f 42/80/21 43/82/21 41/78/21
f 44/84/22 45/86/22 43/82/22
f 46/88/23 47/90/23 45/86/23
f 48/92/24 49/94/24 47/90/24
f 50/96/25 51/98/25 49/94/25
f 51/98/26 54/104/26 53/102/26
f 53/102/27 56/108/27 55/106/27
f 56/108/28 57/110/28 55/106/28
f 57/110/29 60/116/29 59/114/29
f 60/116/30 61/118/30 59/114/30
f 61/118/31 64/124/31 63/122/31
f 64/124/32 65/126/32 63/122/32
f 66/128/33 67/130/33 65/126/33
f 44/85/34 28/53/34 12/21/34
f 68/133/35 69/134/35 67/130/35
f 70/137/36 7/9/36 69/134/36
f 37/71/37 53/103/37 69/135/37
f 6/7/1 4/5/1 3/4/1
f 5/6/2 3/4/2 1/1/2
f 1/2/38 3/4/38 4/5/38
f 4/5/39 6/7/39 5/6/39
f 7/8/4 8/11/4 10/16/4
f 9/14/5 10/16/5 12/20/5
f 12/20/6 14/24/6 13/22/6
f 14/24/7 16/28/7 15/26/7
f 16/28/8 18/32/8 17/30/8
f 18/32/9 20/36/9 19/34/9
f 19/34/10 20/36/10 22/40/10
f 22/40/11 24/44/11 23/42/11
f 24/44/12 26/48/12 25/46/12
f 26/48/13 28/52/13 27/50/13
f 28/52/14 30/56/14 29/54/14
f 30/56/15 32/60/15 31/58/15
f 31/58/16 32/60/16 34/64/16
f 34/64/17 36/68/17 35/66/17
f 36/68/18 38/72/18 37/70/18
f 38/72/19 40/76/19 39/74/19
f 39/74/20 40/76/20 42/80/20
f 42/80/21 44/84/21 43/82/21
f 44/84/22 46/88/22 45/86/22
f 46/88/23 48/92/23 47/90/23
f 48/92/24 50/96/24 49/94/24
f 50/96/25 52/100/25 51/98/25
f 51/98/26 52/100/26 54/104/26
f 53/102/27 54/104/27 56/108/27
f 56/108/28 58/112/28 57/110/28
f 57/110/29 58/112/29 60/116/29
f 60/116/30 62/120/30 61/118/30
f 61/118/31 62/120/31 64/124/31
f 64/124/32 66/128/32 65/126/32
f 66/128/33 68/133/33 67/130/33
f 12/21/34 10/17/34 8/12/34
f 8/12/34 70/136/34 68/132/34
f 68/132/34 66/129/34 64/125/34
f 64/125/34 62/121/34 60/117/34
f 60/117/40 58/113/40 56/109/40
f 56/109/40 54/105/40 52/101/40
f 52/101/34 50/97/34 48/93/34
f 48/93/34 46/89/34 44/85/34
f 44/85/34 42/81/34 40/77/34
f 40/77/34 38/73/34 36/69/34
f 36/69/34 34/65/34 32/61/34
f 32/61/34 30/57/34 28/53/34
f 28/53/41 26/49/41 24/45/41
f 24/45/41 22/41/41 20/37/41
f 20/37/34 18/33/34 16/29/34
f 16/29/34 14/25/34 12/21/34
f 12/21/34 8/12/34 68/132/34
f 68/132/34 64/125/34 60/117/34
f 60/117/34 56/109/34 52/101/34
f 52/101/34 48/93/34 44/85/34
f 44/85/34 40/77/34 36/69/34
f 36/69/34 32/61/34 28/53/34
f 28/53/34 24/45/34 20/37/34
f 20/37/34 16/29/34 12/21/34
f 12/21/34 68/132/34 60/117/34
f 60/117/34 52/101/34 44/85/34
f 44/85/34 36/69/34 28/53/34
f 28/53/34 20/37/34 12/21/34
f 12/21/34 60/117/34 44/85/34
f 68/133/35 70/137/35 69/134/35
f 70/137/36 8/13/36 7/9/36
f 69/135/37 7/10/37 9/15/37
f 9/15/37 11/19/37 13/23/37
f 13/23/37 15/27/37 17/31/37
f 17/31/37 19/35/37 21/39/37
f 21/39/37 23/43/37 25/47/37
f 25/47/37 27/51/37 29/55/37
f 29/55/37 31/59/37 33/63/37
f 33/63/37 35/67/37 37/71/37
f 37/71/37 39/75/37 41/79/37
f 41/79/37 43/83/37 45/87/37
f 45/87/37 47/91/37 49/95/37
f 49/95/37 51/99/37 53/103/37
f 53/103/37 55/107/37 57/111/37
f 57/111/37 59/115/37 61/119/37
f 61/119/37 63/123/37 65/127/37
f 65/127/37 67/131/37 69/135/37
f 69/135/37 9/15/37 13/23/37
f 13/23/37 17/31/37 21/39/37
f 21/39/37 25/47/37 29/55/37
f 29/55/37 33/63/37 37/71/37
f 37/71/37 41/79/37 45/87/37
f 45/87/37 49/95/37 53/103/37
f 53/103/37 57/111/37 61/119/37
f 61/119/37 65/127/37 69/135/37
f 69/135/37 13/23/37 21/39/37
f 21/39/37 29/55/37 37/71/37
f 37/71/37 45/87/37 53/103/37
f 53/103/37 61/119/37 69/135/37
f 69/135/37 21/39/37 37/71/37
